<?xml version="1.0" encoding="UTF-8"?>
<svg width="121.07" height="48" data-name="Calque 2" version="1.1" viewBox="0 0 121.07 48" xmlns="http://www.w3.org/2000/svg">
 <defs>
  <style>.cls-1 {
        stroke-width: 0px;
      }</style>
 </defs>
 <g transform="matrix(.16624 0 0 .16624 0 -.00025813)" data-name="Calque 2">
  <g data-name="Calque 1-2">
   <path class="cls-1" d="m91.8 186.04c-50.6 0-91.8-41.2-91.8-91.8s41.2-91.8 91.8-91.8 91.8 41.2 91.8 91.8-41.1 91.8-91.8 91.8zm0-139.2c-26.2 0-47.4 21.3-47.4 47.4s21.3 47.4 47.4 47.4 47.4-21.3 47.4-47.4c0.1-26.1-21.2-47.4-47.4-47.4z"/>
   <path class="cls-1" d="m161.5 119.04c-12.3 0-22.2-9.9-22.2-22.2v-72.3c0-12.3 9.9-22.2 22.2-22.2s22.1 10 22.1 22.3v72.3c0 12.2-9.9 22.1-22.1 22.1z"/>
   <path class="cls-1" d="m155.2 247.94c-3 0-6.1-0.6-9-2-10.9-5-15.8-17.9-10.8-28.8 1.5-3.3 2.7-6.9 3.4-10.5 2.3-11.8 13.7-19.5 25.5-17.2s19.5 13.7 17.2 25.5c-1.4 6.9-3.5 13.7-6.4 20.1-3.7 8.1-11.6 12.9-19.9 12.9z"/>
   <path class="cls-1" d="m135.7 273.24c-6.3 0-12.6-2.7-16.9-8-7.6-9.3-6.2-23 3.2-30.6 5.8-4.7 10.4-10.7 13.4-17.4 5-10.9 17.8-15.8 28.8-10.8 10.9 5 15.8 17.9 10.8 28.8-5.8 12.8-14.7 24.3-25.6 33.2-4 3.2-8.8 4.8-13.7 4.8z"/>
   <path class="cls-1" d="m91.8 288.74c-21 0-41.5-7.3-57.8-20.6-9.3-7.6-10.7-21.3-3.1-30.6s21.3-10.7 30.6-3.1c8.6 7 19.1 10.8 30.3 10.8s21.6-3.7 30.2-10.7c9.3-7.6 23-6.2 30.6 3.2 7.6 9.3 6.2 23-3.2 30.6-16.2 13.2-36.6 20.4-57.6 20.4z"/>
   <path class="cls-1" d="m269.7 283.84c-3.5 0-7.1-0.8-10.4-2.6-10.6-5.7-14.6-19-8.8-29.6l127.5-236.1c5.7-10.6 19-14.6 29.6-8.8 10.6 5.7 14.6 19 8.8 29.6l-127.5 236c-3.9 7.4-11.5 11.5-19.2 11.5z"/>
   <path class="cls-1" d="m285.1 99.04c-7.2 0-14.3-3.6-18.4-10.1l-35.3-55.3c-6.5-10.2-3.5-23.7 6.6-30.2 10.2-6.5 23.7-3.5 30.2 6.6l35.3 55.3c6.5 10.2 3.5 23.7-6.6 30.2-3.7 2.3-7.7 3.5-11.8 3.5z"/>
   <path class="cls-1" d="m650.8 71.64c-2.6 0-5.2-0.5-7.8-1.4-11.3-4.3-16.9-16.9-12.7-28.2l9.2-23.9c4.3-11.3 16.9-16.9 28.2-12.7 11.3 4.3 16.9 16.9 12.7 28.2l-9.2 23.9c-3.3 8.7-11.6 14.1-20.4 14.1z"/>
   <path class="cls-1" d="m569.5 285.34c-8.7 0-16.7-5.2-20.1-13.3l-101.3-237.6c-4.7-11.1 0.4-23.9 11.5-28.7 11.1-4.7 23.9 0.4 28.7 11.5l80.1 187.8 24.5-64.4c4.3-11.3 16.9-17 28.2-12.7s16.9 16.9 12.7 28.2l-43.8 115.1c-3.2 8.3-11.1 13.9-20 14.1z"/>
   <path class="cls-1" d="m613.4 170.24c-8.5 0-16.6-5-20.2-13.4l-51.7-122.5c-4.7-11.1 0.5-23.9 11.6-28.6s23.9 0.5 28.6 11.6l51.7 122.6c4.7 11.1-0.5 23.9-11.6 28.6-2.7 1.2-5.6 1.7-8.4 1.7z"/>
   <path class="cls-1" d="m662.7 285.34c-8.7 0-16.7-5.2-20.1-13.3l-101.4-237.6c-4.7-11.1 0.4-23.9 11.5-28.7 11.1-4.7 23.9 0.4 28.7 11.5l80.1 187.8 24.5-64.4c4.3-11.3 16.9-17 28.2-12.7s16.9 16.9 12.7 28.2l-43.8 115.1c-3.2 8.3-11.1 13.9-20 14.1z"/>
  </g>
 </g>
</svg>
