<?xml version="1.0" encoding="UTF-8"?>
<svg width="48" height="48" data-name="Calque 2" version="1.1" viewBox="0 0 48 48" xmlns="http://www.w3.org/2000/svg">
 <defs>
  <style>.cls-1 {
        fill: #1d1d1b;
        stroke-width: 0px;
      }</style>
 </defs>
 <g transform="scale(1.0667)" data-name="Calque 1">
  <path class="cls-1" d="m22.32 24.06c-1.12 0-2.02 0.34-2.68 1.01s-0.99 1.66-0.99 2.96 0.33 2.23 0.98 2.92 1.55 1.04 2.7 1.04 2.05-0.35 2.7-1.04 0.98-1.66 0.98-2.92-0.33-2.29-0.99-2.96-1.56-1.01-2.68-1.01z"/>
  <path class="cls-1" d="m36.46 0h-27.92c-4.72 0-8.54 3.82-8.54 8.54v27.92c0 4.72 3.82 8.54 8.54 8.54h27.92c4.72 0 8.54-3.82 8.54-8.54v-27.92c0-4.72-3.82-8.54-8.54-8.54zm-7.7 33.84c-1.59 1.51-3.81 2.26-6.65 2.26s-5-0.76-6.47-2.27c-1.46-1.5-2.2-3.32-2.2-5.47 0-1.43 0.33-2.72 0.98-3.88s1.6-2.03 2.86-2.62c-1.23-0.82-2.03-1.71-2.4-2.66s-0.55-1.85-0.55-2.68c0-1.85 0.7-3.43 2.09-4.74s3.36-1.96 5.91-1.96 4.51 0.65 5.91 1.96 2.09 2.89 2.09 4.74c0 0.83-0.18 1.73-0.55 2.68s-1.17 1.78-2.4 2.49c1.25 0.7 2.2 1.63 2.83 2.79s0.95 2.46 0.95 3.88c0 2.14-0.79 3.97-2.38 5.48z"/>
  <path class="cls-1" d="m22.32 20.23c1.02 0 1.81-0.29 2.36-0.88s0.83-1.34 0.83-2.27c0-1.01-0.28-1.8-0.83-2.36s-1.34-0.85-2.36-0.85-1.8 0.28-2.36 0.85-0.85 1.36-0.85 2.36c0 0.93 0.29 1.68 0.86 2.27 0.56 0.59 1.35 0.88 2.36 0.88z"/>
 </g>
</svg>
