<?xml version="1.0" encoding="UTF-8"?>
<svg width="48" height="48" data-name="Calque 2" version="1.1" viewBox="0 0 48 48" xmlns="http://www.w3.org/2000/svg">
 <defs>
  <style>.cls-1 {
        fill: #1d1d1b;
        stroke-width: 0px;
      }</style>
 </defs>
 <g transform="scale(1.0667)" data-name="Calque 1">
  <path class="cls-1" d="m22.39 22.9c-0.86 0-1.61 0.26-2.27 0.77-0.98 0.76-1.48 1.99-1.48 3.69 0 1.37 0.37 2.49 1.11 3.36s1.68 1.3 2.81 1.3 1.99-0.42 2.63-1.26 0.96-1.92 0.96-3.26c0-1.49-0.36-2.63-1.09-3.42s-1.62-1.19-2.67-1.19z"/>
  <path class="cls-1" d="m36.46 0h-27.92c-4.72 0-8.54 3.82-8.54 8.54v27.92c0 4.72 3.82 8.54 8.54 8.54h27.92c4.72 0 8.54-3.82 8.54-8.54v-27.92c0-4.72-3.82-8.54-8.54-8.54zm-7.36 33.38c-1.42 1.82-3.62 2.72-6.61 2.72-3.21 0-5.58-1.34-7.1-4.03-1.18-2.1-1.78-4.8-1.78-8.12 0-1.95 0.08-3.53 0.25-4.75 0.29-2.17 0.86-3.97 1.71-5.41 0.73-1.23 1.68-2.22 2.86-2.97s2.59-1.12 4.23-1.12c2.37 0 4.25 0.61 5.66 1.82s2.2 2.83 2.37 4.84h-4.99c0-0.41-0.16-0.86-0.47-1.35-0.54-0.8-1.35-1.2-2.44-1.2-1.63 0-2.79 0.91-3.48 2.74-0.38 1.01-0.63 2.5-0.77 4.46 0.62-0.74 1.34-1.28 2.16-1.62s1.76-0.51 2.81-0.51c2.26 0 4.12 0.77 5.56 2.3s2.17 3.5 2.17 5.89-0.71 4.48-2.13 6.29z"/>
 </g>
</svg>
