<?xml version="1.0" encoding="UTF-8"?>
<svg width="48" height="48" data-name="Calque 2" version="1.1" viewBox="0 0 48 48" xmlns="http://www.w3.org/2000/svg">
 <defs>
  <style>.cls-1 {
        fill: #1d1d1b;
        stroke-width: 0px;
      }</style>
 </defs>
 <g transform="scale(1.0667)" data-name="Calque 1">
  <path class="cls-1" d="m22.28 13.92c-0.86 0-1.59 0.24-2.2 0.72-0.96 0.75-1.44 2.02-1.44 3.81 0 1.51 0.31 2.65 0.92 3.4s1.56 1.13 2.84 1.13c0.69 0 1.34-0.2 1.95-0.6 1.14-0.73 1.71-1.99 1.71-3.78 0-1.44-0.34-2.58-1.01-3.43s-1.6-1.27-2.77-1.27z"/>
  <path class="cls-1" d="m36.46 0h-27.92c-4.72 0-8.54 3.82-8.54 8.54v27.92c0 4.72 3.82 8.54 8.54 8.54h27.92c4.72 0 8.54-3.82 8.54-8.54v-27.92c0-4.72-3.82-8.54-8.54-8.54zm-6.36 30.28c-1.5 3.93-4.25 5.89-8.26 5.89-1.91 0-3.63-0.57-5.15-1.7s-2.4-2.78-2.62-4.95h4.99c0.12 0.75 0.43 1.36 0.95 1.83s1.2 0.7 2.06 0.7c1.65 0 2.81-0.91 3.48-2.74 0.36-1.01 0.59-2.48 0.69-4.41-0.46 0.57-0.94 1.01-1.46 1.32-0.94 0.56-2.09 0.84-3.46 0.84-2.03 0-3.83-0.7-5.4-2.1s-2.36-3.42-2.36-6.06 0.79-4.94 2.36-6.64 3.62-2.54 6.14-2.54c3.88 0 6.54 1.72 7.98 5.15 0.82 1.95 1.23 4.51 1.23 7.68s-0.39 5.65-1.18 7.72z"/>
 </g>
</svg>
