<?xml version="1.0" encoding="UTF-8"?>
<svg width="48" height="48" data-name="Calque 2" version="1.1" viewBox="0 0 48 48" xmlns="http://www.w3.org/2000/svg">
 <defs>
  <style>.cls-1 {
        fill: #1d1d1b;
        stroke-width: 0px;
      }</style>
 </defs>
 <g transform="scale(1.0667)" data-name="Calque 1">
  <path class="cls-1" d="m36.46 0h-27.92c-4.72 0-8.54 3.82-8.54 8.54v27.92c0 4.72 3.82 8.54 8.54 8.54h27.92c4.72 0 8.54-3.82 8.54-8.54v-27.92c0-4.72-3.82-8.54-8.54-8.54zm-4.98 14.2c-0.75 0.74-1.79 2.05-3.13 3.94-1.34 1.9-2.46 3.86-3.36 5.87-0.71 1.58-1.36 3.52-1.93 5.8s-0.86 4.16-0.86 5.62h-5.2c0.15-4.57 1.65-9.32 4.5-14.26 1.84-3.06 3.38-5.19 4.62-6.4h-12.71l0.07-4.5h18v3.92z"/>
 </g>
</svg>
