<?xml version="1.0" encoding="UTF-8"?>
<svg width="48" height="48" data-name="Calque 2" version="1.1" viewBox="0 0 48 48" xmlns="http://www.w3.org/2000/svg">
 <defs>
  <style>.cls-1 {
        fill: #1d1d1b;
        stroke-width: 0px;
      }</style>
 </defs>
 <g transform="scale(1.0667)" data-name="Calque 1">
  <path class="cls-1" d="m36.46 0h-27.92c-4.72 0-8.54 3.82-8.54 8.54v27.92c0 4.72 3.82 8.54 8.54 8.54h27.92c4.72 0 8.54-3.82 8.54-8.54v-27.92c0-4.72-3.82-8.54-8.54-8.54zm-7.23 32.66c-1.31 2.27-3.58 3.41-6.83 3.41s-5.52-1.14-6.83-3.41-1.96-5.51-1.96-9.72 0.65-7.45 1.96-9.74 3.58-3.43 6.83-3.43 5.53 1.14 6.84 3.43c1.3 2.29 1.95 5.53 1.95 9.74s-0.65 7.45-1.96 9.72z"/>
  <path class="cls-1" d="m22.4 13.9c-1.49 0-2.47 0.74-2.95 2.21s-0.72 3.75-0.72 6.82 0.24 5.17 0.72 6.72 1.46 2.33 2.95 2.33 2.47-0.78 2.94-2.34c0.46-1.55 0.69-3.79 0.69-6.71s-0.23-5.34-0.69-6.82-1.44-2.21-2.93-2.21z"/>
 </g>
</svg>
