<?xml version="1.0" encoding="UTF-8"?>
<svg width="48" height="48" data-name="Calque 2" version="1.1" viewBox="0 0 48 48" xmlns="http://www.w3.org/2000/svg">
 <defs>
  <style>.cls-1 {
        fill: #1d1d1b;
        stroke-width: 0px;
      }</style>
 </defs>
 <g transform="scale(1.0667)" data-name="Calque 1">
  <path class="cls-1" d="m36.46 0h-27.92c-4.72 0-8.54 3.82-8.54 8.54v27.92c0 4.72 3.82 8.54 8.54 8.54h27.92c4.72 0 8.54-3.82 8.54-8.54v-27.92c0-4.72-3.82-8.54-8.54-8.54zm-7.66 33.32c-1.51 1.85-3.77 2.78-6.79 2.78-2.43 0-4.42-0.65-5.98-1.95s-2.43-3.15-2.6-5.54h4.99c0.2 1.09 0.58 1.93 1.14 2.52s1.38 0.89 2.46 0.89c1.24 0 2.19-0.44 2.84-1.31s0.98-1.97 0.98-3.3-0.3-2.4-0.91-3.3-1.56-1.34-2.85-1.34c-0.61 0-1.14 0.08-1.58 0.23-0.79 0.28-1.38 0.8-1.78 1.56l-4.5-0.21 1.79-14.08h14.04v4.25h-10.42l-0.91 5.57c0.77-0.5 1.38-0.84 1.81-1 0.73-0.27 1.61-0.4 2.65-0.4 2.11 0 3.95 0.71 5.52 2.13s2.36 3.48 2.36 6.19c0 2.36-0.76 4.46-2.27 6.31z"/>
 </g>
</svg>
