<?xml version="1.0" encoding="UTF-8"?>
<svg width="48" height="48" data-name="Calque 2" version="1.1" viewBox="0 0 48 48" xmlns="http://www.w3.org/2000/svg">
 <defs>
  <style>.cls-1 {
        fill: #1d1d1b;
        stroke-width: 0px;
      }</style>
 </defs>
 <g transform="scale(1.0667)" data-name="Calque 1">
  <path class="cls-1" d="m36.46 0h-27.92c-4.72 0-8.54 3.82-8.54 8.54v27.92c0 4.72 3.82 8.54 8.54 8.54h27.92c4.72 0 8.54-3.82 8.54-8.54v-27.92c0-4.72-3.82-8.54-8.54-8.54zm-10.35 35.43h-5.13v-17.58h-5.99v-3.41c1.58-0.07 2.69-0.18 3.32-0.32 1.01-0.22 1.83-0.67 2.46-1.34 0.43-0.46 0.76-1.07 0.98-1.83 0.13-0.46 0.19-0.8 0.19-1.02h4.17v25.49z"/>
 </g>
</svg>
