<?xml version="1.0" encoding="UTF-8"?>
<svg width="48" height="48" data-name="Calque 2" version="1.1" viewBox="0 0 48 48" xmlns="http://www.w3.org/2000/svg">
 <defs>
  <style>.cls-1 {
        fill: #1d1d1b;
        stroke-width: 0px;
      }</style>
 </defs>
 <g transform="scale(1.0667)" data-name="Calque 1">
  <path class="cls-1" d="m36.46 0h-27.92c-4.72 0-8.54 3.82-8.54 8.54v27.92c0 4.72 3.82 8.54 8.54 8.54h27.92c4.72 0 8.54-3.82 8.54-8.54v-27.92c0-4.72-3.82-8.54-8.54-8.54zm-5.39 35.43h-17.46c0.05-1.83 0.44-3.5 1.18-5.01 0.71-1.7 2.4-3.5 5.06-5.4 2.31-1.65 3.8-2.84 4.48-3.55 1.04-1.11 1.56-2.33 1.56-3.66 0-1.08-0.3-1.97-0.9-2.69s-1.45-1.07-2.57-1.07c-1.52 0-2.56 0.57-3.11 1.71-0.32 0.66-0.5 1.7-0.56 3.13h-4.87c0.08-2.17 0.47-3.92 1.18-5.26 1.34-2.54 3.71-3.81 7.12-3.81 2.7 0 4.84 0.75 6.43 2.24s2.39 3.47 2.39 5.93c0 1.89-0.56 3.56-1.69 5.03-0.74 0.97-1.95 2.06-3.64 3.25l-2 1.42c-1.25 0.89-2.11 1.54-2.58 1.93s-0.85 0.86-1.17 1.39h11.13v4.41z"/>
 </g>
</svg>
