<?xml version="1.0" encoding="UTF-8"?>
<svg width="48" height="48" data-name="Calque 2" version="1.1" viewBox="0 0 48 48" xmlns="http://www.w3.org/2000/svg">
 <defs>
  <style>.cls-1 {
        fill: #1d1d1b;
        stroke-width: 0px;
      }</style>
 </defs>
 <g transform="scale(1.0667)" data-name="Calque 1">
  <path class="cls-1" d="m22.49 14.02h-4.99v16.91h4.99c2.55 0 4.34-1.26 5.34-3.78 0.55-1.38 0.83-3.03 0.83-4.94 0-2.64-0.41-4.66-1.23-6.08-0.83-1.41-2.48-2.11-4.94-2.11z"/>
  <path class="cls-1" d="m36.46 0h-27.92c-4.72 0-8.54 3.82-8.54 8.54v27.92c0 4.72 3.82 8.54 8.54 8.54h27.92c4.72 0 8.54-3.82 8.54-8.54v-27.92c0-4.72-3.82-8.54-8.54-8.54zm-4.37 30.6c-1.88 3.22-4.77 4.83-8.68 4.83h-11.16v-25.91h11.16c1.61 0.02 2.94 0.21 4.01 0.56 1.82 0.6 3.29 1.69 4.41 3.29 0.9 1.29 1.52 2.68 1.85 4.18s0.49 2.93 0.49 4.29c0 3.45-0.69 6.36-2.07 8.75z"/>
 </g>
</svg>
