<?xml version="1.0" encoding="UTF-8"?>
<svg width="48" height="48" data-name="Calque 2" version="1.1" viewBox="0 0 48 48" xmlns="http://www.w3.org/2000/svg">
 <defs>
  <style>.cls-1 {
        fill: #1d1d1b;
        stroke-width: 0px;
      }</style>
 </defs>
 <g transform="scale(1.0667)" data-name="Calque 1">
  <path class="cls-1" d="m26.57 24.47c-0.62-0.28-1.49-0.43-2.62-0.44h-6.45v6.91h6.36c1.14 0 2.02-0.15 2.65-0.46 1.15-0.56 1.72-1.64 1.72-3.23 0-1.35-0.56-2.27-1.67-2.78z"/>
  <path class="cls-1" d="m26.64 19.09c0.7-0.42 1.05-1.18 1.05-2.27 0-1.21-0.47-2-1.41-2.39-0.81-0.27-1.84-0.4-3.09-0.4h-5.7v5.71h6.36c1.14 0 2.06-0.22 2.78-0.65z"/>
  <path class="cls-1" d="m36.46 0h-27.92c-4.72 0-8.54 3.82-8.54 8.54v27.92c0 4.72 3.82 8.54 8.54 8.54h27.92c4.72 0 8.54-3.82 8.54-8.54v-27.92c0-4.72-3.82-8.54-8.54-8.54zm-3.91 31.74c-0.49 0.81-1.11 1.49-1.85 2.04-0.83 0.63-1.81 1.07-2.94 1.3s-2.36 0.35-3.68 0.35h-11.74v-25.91h12.59c3.18 0.05 5.43 0.97 6.75 2.76 0.8 1.1 1.2 2.42 1.2 3.96s-0.4 2.85-1.2 3.81c-0.45 0.54-1.1 1.03-1.97 1.48 1.32 0.48 2.32 1.24 3 2.29s1.01 2.31 1.01 3.8-0.39 2.91-1.16 4.13z"/>
 </g>
</svg>
