<?xml version="1.0" encoding="UTF-8"?>
<svg width="48" height="48" data-name="Calque 2" version="1.1" viewBox="0 0 48 48" xmlns="http://www.w3.org/2000/svg">
 <defs>
  <style>.cls-1 {
        fill: #1d1d1b;
        stroke-width: 0px;
      }</style>
 </defs>
 <g transform="scale(1.0667)" data-name="Calque 1">
  <path class="cls-1" d="m36.46 0h-27.92c-4.72 0-8.54 3.82-8.54 8.54v27.92c0 4.72 3.82 8.54 8.54 8.54h27.92c4.72 0 8.54-3.82 8.54-8.54v-27.92c0-4.72-3.82-8.54-8.54-8.54zm-7.63 33.61c-1.49 1.63-3.71 2.45-6.64 2.45-3.61 0-6.12-1.18-7.52-3.53-0.74-1.25-1.15-2.89-1.23-4.92h4.92c0 1.02 0.16 1.86 0.49 2.53 0.61 1.23 1.72 1.85 3.32 1.85 0.98 0 1.84-0.34 2.58-1.01s1.1-1.64 1.1-2.91c0-1.68-0.68-2.79-2.04-3.36-0.77-0.32-1.99-0.47-3.66-0.47v-3.59c1.63-0.02 2.77-0.18 3.41-0.47 1.11-0.49 1.67-1.49 1.67-2.99 0-0.97-0.28-1.76-0.85-2.37s-1.37-0.91-2.4-0.91c-1.18 0-2.05 0.38-2.6 1.12-0.56 0.75-0.83 1.75-0.81 3.01h-4.68c0.05-1.27 0.26-2.47 0.65-3.6 0.41-1 1.05-1.92 1.93-2.76 0.66-0.6 1.44-1.05 2.34-1.37s2.01-0.47 3.32-0.47c2.44 0 4.4 0.63 5.9 1.89s2.24 2.95 2.24 5.07c0 1.5-0.45 2.77-1.34 3.8-0.56 0.64-1.15 1.08-1.76 1.32 0.46 0 1.11 0.39 1.97 1.18 1.28 1.18 1.92 2.8 1.92 4.85 0 2.16-0.75 4.05-2.24 5.69z"/>
 </g>
</svg>
