<?xml version="1.0" encoding="UTF-8"?>
<svg width="48" height="48" data-name="Calque 2" version="1.1" viewBox="0 0 48 48" xmlns="http://www.w3.org/2000/svg">
 <defs>
  <style>.cls-1 {
        fill: #1d1d1b;
        stroke-width: 0px;
      }</style>
 </defs>
 <g transform="scale(1.0667)" data-name="Calque 1">
  <path class="cls-1" d="m36.46 0h-27.92c-4.72 0-8.54 3.82-8.54 8.54v27.92c0 4.72 3.82 8.54 8.54 8.54h27.92c4.72 0 8.54-3.82 8.54-8.54v-27.92c0-4.72-3.82-8.54-8.54-8.54zm-18 29.31c1.2 1.45 2.73 2.17 4.58 2.17s3.35-0.62 4.34-1.86c0.55-0.67 1.01-1.67 1.37-3.01h5.36c-0.47 2.82-1.66 5.12-3.59 6.89s-4.41 2.65-7.42 2.65c-3.73 0-6.66-1.2-8.79-3.59-2.13-2.4-3.2-5.7-3.2-9.88 0-4.52 1.21-8.01 3.64-10.46 2.11-2.13 4.79-3.2 8.05-3.2 4.36 0 7.55 1.43 9.56 4.29 1.11 1.61 1.71 3.22 1.79 4.83h-5.41c-0.35-1.24-0.8-2.18-1.35-2.81-0.98-1.12-2.44-1.69-4.38-1.69s-3.52 0.79-4.66 2.38-1.71 3.83-1.71 6.74 0.6 5.08 1.8 6.53z"/>
 </g>
</svg>
