<?xml version="1.0" encoding="UTF-8"?>
<svg width="48" height="48" version="1.1" viewBox="0 0 32 32" xmlns="http://www.w3.org/2000/svg">
 <path d="m16 1a15 15 0 1 0 15 15 15 15 0 0 0-15-15zm0 25.909a10.909 10.909 0 1 1 10.909-10.909 10.909 10.909 0 0 1-10.909 10.909z" opacity=".25" stroke-width="1.3636"/>
 <path d="m13.464 1.2182a15 15 0 0 0-12.273 12.164 2.1682 2.1682 0 0 0 1.8 2.6182 2.0727 2.0727 0 0 0 2.25-1.7727 10.909 10.909 0 0 1 9.0818-9.0136 1.9364 1.9364 0 0 0 1.6773-1.9091 2.1409 2.1409 0 0 0-2.5364-2.0864z" stroke-width="1.3636"/>
</svg>
