<?xml version="1.0" encoding="UTF-8"?>
<svg width="48" height="48" version="1.1" viewBox="0 -960 1920 1920" xmlns="http://www.w3.org/2000/svg">
 <path d="m960 480q42 0 71-29t29-71-29-71-71-29-71 29-29 71 29 71 71 29zm-72-308h148q0-72 16-106t68-86q70-70 99-117t29-107q0-106-72-171t-194-65q-110 0-187 54t-107 150l132 52q14-54 56-87t98-33q54 0 90 29t36 77q0 34-22 72t-74 84q-66 58-91 111t-25 143zm-488 548q-66 0-113-47t-47-113v-1120q0-66 47-113t113-47h1120q66 0 113 47t47 113v1120q0 66-47 113t-113 47zm0-160h1120v-1120h-1120zm0-1120v1120z" stroke-width="2"/>
</svg>
